<svg id="eenOtZkJ69i1" xmlns="http://www.w3.org/2000/svg" xmlns:xlink="http://www.w3.org/1999/xlink" viewBox="0 0 300 216" shape-rendering="geometricPrecision" text-rendering="geometricPrecision">
<style><![CDATA[
#eenOtZkJ69i3_tr {animation: eenOtZkJ69i3_tr__tr 3000ms linear infinite normal forwards}@keyframes eenOtZkJ69i3_tr__tr { 0% {transform: translate(1327.247681px,1430px) rotate(0deg)} 3.333333% {transform: translate(1327.247681px,1430px) rotate(0deg)} 86.666667% {transform: translate(1327.247681px,1430px) rotate(360deg)} 100% {transform: translate(1327.247681px,1430px) rotate(360deg)}} #eenOtZkJ69i4_tr {animation: eenOtZkJ69i4_tr__tr 3000ms linear infinite normal forwards}@keyframes eenOtZkJ69i4_tr__tr { 0% {transform: translate(1640.267944px,1315px) rotate(0deg)} 3.333333% {transform: translate(1640.267944px,1315px) rotate(0deg)} 86.666667% {transform: translate(1640.267944px,1315px) rotate(360deg)} 100% {transform: translate(1640.267944px,1315px) rotate(360deg)}} #eenOtZkJ69i5_tr {animation: eenOtZkJ69i5_tr__tr 3000ms linear infinite normal forwards}@keyframes eenOtZkJ69i5_tr__tr { 0% {transform: translate(1405.5px,1080px) rotate(360deg)} 3.333333% {transform: translate(1405.5px,1080px) rotate(360deg)} 86.666667% {transform: translate(1405.5px,1080px) rotate(0deg)} 100% {transform: translate(1405.5px,1080px) rotate(0deg)}}
]]></style>
<g transform="matrix(.1 0 0-.1 0 216)"><g id="eenOtZkJ69i3_tr" transform="translate(1327.247681,1430) rotate(0)"><path d="M1371.874959,1700.544286c-18.865185-23.61-82.535183-110.18-140.309812-192.252857s-109.653887-155.151429-115.549257-163.021429c-7.074445-10.118571,7.074444-39.35,41.267592-89.942857C1185.581259,1213.728571,1212.699962,1180,1216.237184,1180s53.058333,67.457143,112.012035,149.53c57.774629,80.948571,146.205183,205.744286,195.726293,275.45c50.700184,70.83,91.967775,128.168571,91.967775,129.292857s-47.162961,3.372857-104.93759,5.621429l-104.93759,2.248571-34.193148-41.598571ZM1554.631436,1699.42c-8.253518-20.237143-333.677956-473.324286-339.573325-473.324286-15.327963,0-71.923517,106.807143-63.669999,119.174286c5.89537,7.87,66.028146,92.191429,134.414442,188.88l123.802774,174.264286h74.281665c41.267592,0,73.102592-4.497143,70.744443-8.994286Z" transform="translate(-1327.247681,-1430)"/></g><g id="eenOtZkJ69i4_tr" transform="translate(1640.267944,1315) rotate(0)"><path d="M1574.685096,1538.10276c-68.654327-97.146637-131.68125-182.802812-140.685096-191.159511-12.380289-13.579638,1.125481-37.605151,93.414904-161.911063c58.525-80.433236,120.426443-166.089412,137.308654-190.114924l29.2625-43.872674L1798.655769,950C1854.929808,950,1902.2,952.089175,1902.2,955.222937c0,2.089175-60.775961,87.74535-133.932211,189.070337l-135.057693,183.8474l129.430288,177.579874c70.90529,97.146636,131.681251,181.758223,135.057693,189.070336c3.376442,9.401287-22.509616,13.579638-95.665866,15.668813l-100.167787,2.089175-127.179328-174.446112Zm270.115385,122.216736c-9.003846-10.445875-67.528847-89.834524-130.55577-176.535286l-114.799037-156.688124l129.430288-173.401524c70.905289-96.10205,128.304808-176.535287,128.304808-178.624462s-31.513462-4.17835-70.905289-4.17835h-70.905289l-130.555769,179.669048c-111.422597,152.509776-129.430289,182.802813-117.049999,196.382451c7.878365,8.356699,66.403365,87.745349,129.430287,175.490698l114.79904,158.777299h74.28173c70.905289,0,73.15625-1.044587,58.525-20.89175Z" transform="scale(1,1.062227) translate(-1640.267944,-1315)"/></g><g id="eenOtZkJ69i5_tr" transform="translate(1405.5,1080) rotate(360)"><path d="M1315.700844,1194.085165C1291.17844,1150.71978,1270,1111.071429,1270,1106.115384s21.17844-42.126373,46.815498-81.774725L1363.630996,950h103.662889h104.777544l-98.089615,161.071429c-53.503427,87.96978-101.43358,161.071428-104.777544,161.071428-4.458619,0-27.866368-34.692308-53.503426-78.057692Zm127.070637-85.491759c36.783606-61.950549,69.108593-117.706043,70.223247-122.662087c2.22931-6.195055-25.637058-11.151099-62.420664-11.151099h-66.879283l-40.127569,60.711539c-22.293095,33.453296-40.127571,64.428571-40.127571,69.384615c0,12.39011,60.191355,117.706044,66.879284,117.706044c3.343964,0,35.668951-50.799451,72.452556-113.989012Z" transform="translate(-1405.5,-1080)"/></g><path d="M410,630v-80h55c42,0,55,3,55,15c0,11-11,15-41,15h-41l4,65c3,57,2,65-14,65s-18-10-18-80Z"/><path d="M546,689c-35-28-36-80-1-114c51-51,125-18,125,55c0,71-67,104-124,59Zm76-21c26-22,29-47,8-68-24-24-43-25-64-4-21,20-20,43,1,66c19,21,33,23,55,6Z"/><path d="M690,630c0-71,2-80,19-80c14,0,17,6,13,25-2,14,0,25,5,25s20-11,33-25s32-25,42-25c24,0,23,8-4,30l-23,19l23,16c12,9,22,27,22,40c0,38-26,55-81,55h-49v-80Zm95,25c0-15-8-21-32-23-30-3-33-1-33,23s3,26,33,23c24-2,32-8,32-23Z"/><path d="M840,630v-80h60c47,0,60,3,60,15c0,11-12,15-45,15s-45,4-45,15s12,15,45,15c38,0,45,3,45,20s-7,20-45,20c-33,0-45,4-45,15s12,15,45,15s45,4,45,15c0,12-13,15-60,15h-60v-80Z"/><path d="M980,630c0-64,3-80,15-80c11,0,15,13,15,53v52l46-52c25-29,52-53,59-53c10,0,14,22,17,80c3,73,1,80-16,80-16,0-18-6-14-50c3-27,2-50-3-50-4,0-25,22-46,50-21,27-46,49-55,50-16,0-18-10-18-80Z"/><path d="M1152,693c2-14,11-17,36-15c17,2,32,1,32-2s-16-28-35-55c-19-26-35-53-35-60s22-11,60-11c47,0,60,3,60,15c0,10-11,15-35,15-19,0-35,3-35,6s16,26,35,51c50,65,47,73-26,73-52,0-60-2-57-17Z"/><path d="M1305,688c-54-47-21-138,50-138s105,90,51,137c-34,29-67,29-101,1Zm79-24c24-24,20-63-8-75-34-16-66,3-66,41c0,44,44,65,74,34Z"/><path d="M1566,689c-20-16-26-29-26-58c0-63,57-99,111-70c16,8,18,13,8,25-9,11-15,12-26,3-24-21-63,5-63,41c0,38,39,62,65,40c13-10,18-11,28-1c9,10,8,15-7,27-28,20-59,18-90-7Z"/><path d="M1722,683c-5-16-19-52-31-80-20-51-20-53-2-53c10,0,21,8,23,18c4,15,13,17,42,14c22-3,36-10,36-18s9-14,19-14c18,0,17,6-12,80-34,86-57,102-75,53Zm42-39c9-23,8-24-14-24-11,0-20,2-20,4c0,12,13,36,20,36c4,0,11-7,14-16Z"/><path d="M1842,698c-32-32-1-88,49-88c20,0,29-5,29-16c0-14-7-15-45-10-45,7-55,0-33-22c16-16,80-16,96,0c33,33,1,88-50,88-19,0-28,4-25,13c3,7,19,11,46,9c42-2,50,5,29,26-16,16-80,16-96,0Z"/><path d="M1976,688c-9-12-16-26-16-30c0-19,43-48,71-48c20,0,29-4,26-12-3-9-21-12-50-11-38,2-45,0-41-12c7-18,41-28,80-23c21,2,31,11,38,31c12,34-6,56-55,66-48,10-33,27,21,23c44-3,44-3,26,17-26,29-80,28-100-1Z"/><path d="M2110,630v-80h60c47,0,60,3,60,15c0,11-12,15-45,15s-45,4-45,15s12,15,45,15c38,0,45,3,45,20s-7,20-45,20c-33,0-45,4-45,15s12,15,45,15s45,4,45,15c0,12-13,15-60,15h-60v-80Z"/><path d="M2262,698c-7-7-12-24-12-40c0-31,23-48,65-48c17,0,25-5,22-12-3-9-21-12-52-10-48,2-48,2-30-18c14-16,29-20,59-18c34,3,42,7,51,32c8,24,6,31-14,47-13,10-34,19-47,19-15,0-24,6-24,16c0,13,8,14,48,8l47-7-19,22c-21,23-74,29-94,9Z"/><path d="M2390,630v-80h60c47,0,60,3,60,15c0,11-12,15-44,15-30,0-46,5-50,15-4,12,4,15,44,15c43,0,50,3,50,20s-7,20-45,20c-34,0-45,4-45,16s9,15,42,12c34-2,43,1,46,15c3,15-5,17-57,17h-61v-80Z"/></g></svg>
